<svg xmlns="http://www.w3.org/2000/svg" width="1200" height="630" viewBox="0 0 1200 630">
  <!-- Background -->
  <rect width="1200" height="630" fill="#111827"/>

  <!-- Grass -->
  <rect x="0" y="510" width="1200" height="120" fill="#1c3a1c"/>
  <rect x="0" y="507" width="1200" height="5" fill="#245c24"/>
  <!-- Path -->
  <rect x="0" y="477" width="1200" height="33" fill="#6b5e42"/>

  <!-- Left tree -->
  <rect x="56" y="310" width="30" height="200" fill="#3d2b1a"/>
  <rect x="6"  y="210" width="128" height="106" fill="#1a4d1a"/>
  <rect x="22" y="140" width="96"  height="76"  fill="#1e5c1e"/>
  <rect x="38" y="76"  width="64"  height="68"  fill="#246b24"/>

  <!-- Right tree -->
  <rect x="1114" y="310" width="30" height="200" fill="#3d2b1a"/>
  <rect x="1066" y="210" width="128" height="106" fill="#1a4d1a"/>
  <rect x="1082" y="140" width="96"  height="76"  fill="#1e5c1e"/>
  <rect x="1098" y="76"  width="64"  height="68"  fill="#246b24"/>

  <!-- Left lamppost -->
  <rect x="236" y="330" width="8" height="180" fill="#4a4a5a"/>
  <rect x="228" y="318" width="24" height="14" rx="2" fill="#6a6a7a"/>
  <ellipse cx="240" cy="316" rx="18" ry="9" fill="#fffde0" opacity="0.12"/>

  <!-- Right lamppost -->
  <rect x="956" y="330" width="8" height="180" fill="#4a4a5a"/>
  <rect x="948" y="318" width="24" height="14" rx="2" fill="#6a6a7a"/>
  <ellipse cx="960" cy="316" rx="18" ry="9" fill="#fffde0" opacity="0.12"/>

  <!-- Left bench -->
  <rect x="316" y="452" width="64" height="8"  fill="#6b4c2a"/>
  <rect x="320" y="442" width="56" height="10" fill="#7a5a30"/>
  <rect x="322" y="460" width="8"  height="16" fill="#5a3f1e"/>
  <rect x="362" y="460" width="8"  height="16" fill="#5a3f1e"/>

  <!-- Right bench -->
  <rect x="820" y="452" width="64" height="8"  fill="#6b4c2a"/>
  <rect x="824" y="442" width="56" height="10" fill="#7a5a30"/>
  <rect x="826" y="460" width="8"  height="16" fill="#5a3f1e"/>
  <rect x="866" y="460" width="8"  height="16" fill="#5a3f1e"/>

  <!-- Fountain (center background) -->
  <rect x="552" y="386" width="96" height="58" rx="4" fill="#2a3a4a"/>
  <rect x="560" y="392" width="80" height="44" rx="3" fill="#3a7a9a" opacity="0.6"/>
  <rect x="598" y="366" width="4"  height="24" fill="#88ccee" opacity="0.8"/>
  <rect x="590" y="374" width="4"  height="16" fill="#88ccee" opacity="0.5"/>
  <rect x="606" y="374" width="4"  height="16" fill="#88ccee" opacity="0.5"/>

  <!-- Grey pigeon (left) -->
  <rect x="464" y="486" width="22" height="13" fill="#9898a8"/>
  <rect x="468" y="477" width="13" height="11" fill="#a8a8b8"/>
  <rect x="480" y="481" width="9"  height="7"  fill="#c0c0c8"/>
  <rect x="466" y="499" width="7"  height="9"  fill="#9898a8"/>
  <rect x="477" y="499" width="7"  height="9"  fill="#9898a8"/>

  <!-- White pigeon (center) -->
  <rect x="584" y="489" width="22" height="13" fill="#dcdce8"/>
  <rect x="588" y="480" width="13" height="11" fill="#ebebf2"/>
  <rect x="600" y="484" width="9"  height="7"  fill="#9060c0"/>
  <rect x="586" y="502" width="7"  height="9"  fill="#dcdce8"/>
  <rect x="597" y="502" width="7"  height="9"  fill="#dcdce8"/>

  <!-- Brown pigeon (right) -->
  <rect x="690" y="483" width="22" height="13" fill="#8b6d4a"/>
  <rect x="694" y="474" width="13" height="11" fill="#9b7d5a"/>
  <rect x="706" y="478" width="9"  height="7"  fill="#d8d8d8"/>
  <rect x="692" y="496" width="7"  height="9"  fill="#8b6d4a"/>
  <rect x="703" y="496" width="7"  height="9"  fill="#8b6d4a"/>

  <!-- Bread crumbs -->
  <rect x="556" y="499" width="7" height="5" fill="#d4a055" opacity="0.85"/>
  <rect x="630" y="497" width="6" height="4" fill="#d4a055" opacity="0.85"/>
  <rect x="660" y="500" width="5" height="4" fill="#d4a055" opacity="0.7"/>

  <!-- Title -->
  <text
    x="600" y="268"
    font-family="'Courier New', Courier, monospace"
    font-size="96"
    font-weight="bold"
    fill="#f8fafc"
    text-anchor="middle"
    letter-spacing="4">Pigeon Park</text>

  <!-- Pigeon emoji either side of title -->
  <text x="196" y="268" font-size="72" text-anchor="middle">🐦</text>
  <text x="1004" y="268" font-size="72" text-anchor="middle">🐦</text>

  <!-- Subtitle -->
  <text
    x="600" y="330"
    font-family="'Courier New', Courier, monospace"
    font-size="28"
    fill="#64748b"
    text-anchor="middle"
    letter-spacing="3">a pixel art park game</text>
</svg>
